<?xml version="1.0"?>
<svg width="170.833" height="176.473" xmlns="http://www.w3.org/2000/svg" xmlns:svg="http://www.w3.org/2000/svg">
 <defs>
  <style>.cls-1{fill:#f9f9fc}.cls-2{fill:#8e99a4}.cls-3,.cls-6,.cls-7{fill:none}.cls-3{stroke:#c6cbdb}.cls-3,.cls-6,.cls-7,.cls-9{stroke-linecap:round;stroke-linejoin:round;stroke-width:2.4px}.cls-4,.cls-9{fill:#e8eaf1}.cls-6,.cls-7,.cls-9{stroke:#c5d0d9}.cls-13,.cls-7{fill-rule:evenodd}.cls-13{fill:#ffc729}.cls-20{isolation:isolate;mix-blend-mode:soft-light}</style>
 </defs>
 <g class="layer">
  <title>Layer 1</title>
  <g id="empty_cart">
   <path class="cls-1" d="m74.13,17.34l0,-0.29a17.38,17.38 0 0 1 34.25,-3.8a11.48,11.48 0 0 1 11.26,0.12a11.12,11.12 0 0 1 5.59,9.62a6.72,6.72 0 0 1 -0.03,0.75a11.99,11.99 0 0 1 7.77,13.39a12.15,12.15 0 0 1 -12.01,9.89l-43.52,0a15,15 0 0 1 -3.31,-29.68z" id="Shape" transform="translate(-8.846 0)"/>
   <path class="cls-1" d="m36.2,154.99a0.98,0.98 0 0 1 0.98,-0.99l39.93,0a0.98,0.98 0 0 1 0.98,0.99l0,6.58a0.98,0.98 0 0 1 -0.98,0.98l-39.93,0a0.98,0.98 0 0 1 -0.98,-0.98l0,-6.58z" id="Rectangle-path_3" transform="translate(-5.075 -22.332)"/>
   <g id="Shape_6" transform="translate(7.985 150.478)">
    <path class="cls-3" d="m8.2,176l25.22,0" id="Path_15498" transform="translate(-9 -176)"/>
   </g>
   <g id="Shape_6-2" transform="translate(139.653 150.478)">
    <path class="cls-3" d="m8.2,176l25.22,0" id="Path_15498-2" transform="translate(-9 -176)"/>
   </g>
   <g id="_Group_">
    <path class="cls-4" d="m194.6,152.75a0.09,0.09 0 0 1 0,0.12l0,-0.12z" id="Shape_7" transform="translate(-56.435 -75.788)"/>
    <path class="cls-4" d="m176.69,184.92l0,51.11a19.74,19.74 0 0 1 -19.77,19.69l-65.66,0a19.74,19.74 0 0 1 -19.76,-19.56l-0.37,-51.24l105.56,0z" id="Shape_8" transform="translate(-38.53 -80.453)"/>
    <path class="cls-4" d="m176.66,152.9l0,27.38l-105.56,0l-0.19,-27.02l105.65,-0.34a0.1,0.1 0 0 0 0.1,-0.02z" id="Shape_9" transform="translate(-38.498 -75.809)"/>
    <path d="m176.67,150.34l0,0.12a0.1,0.1 0 0 1 -0.07,0.02l-105.65,0.35l3.02,-1.43l11.37,-5.4l-11.67,-7.3a0.14,0.14 0 0 1 0.07,-0.25l98.79,-0.34a0.11,0.11 0 0 1 0.07,0.18l-0.07,0.06l-9.6,7.62l9.6,4.43l4.1,1.89a0.06,0.06 0 0 1 0.04,0.05z" fill="#e2e5ed" id="Shape_10" transform="translate(-38.504 -73.374)"/>
    <path class="cls-4" d="m188.13,136.4l0,12.06l-9.6,-4.43l9.6,-7.63z" id="Shape_11" transform="translate(-54.106 -73.417)"/>
    <path class="cls-4" d="m85.8,144.09l-11.37,5.39l-0.3,-12.67l11.67,7.28z" id="Shape_12" transform="translate(-38.965 -73.476)"/>
    <path class="cls-6" d="m74.13,136.81l0.3,12.67" id="Shape_13" transform="translate(-38.965 -73.476)"/>
    <path class="cls-6" d="m70.91,153.21l0.19,27.02l0.36,51.23a19.74,19.74 0 0 0 19.77,19.56l65.66,0a19.73,19.73 0 0 0 19.78,-19.69l0,-78.81" id="Shape_14" transform="translate(-38.498 -75.755)"/>
    <path class="cls-7" d="m73.67,136.7a0.14,0.14 0 0 1 0.07,-0.25l98.79,-0.35a0.11,0.11 0 0 1 0.07,0.19l-0.07,0.06l-9.6,7.62l9.6,4.43l4.1,1.89a0.06,0.06 0 0 1 0.03,0.03a0.09,0.09 0 0 1 -0.07,0.14l-105.64,0.37l3.02,-1.43l11.37,-5.4l-11.67,-7.3z" id="Shape_15" transform="translate(-38.504 -73.374)"/>
    <path class="cls-6" d="m189.76,136.4l0,12.06" id="Shape_16" transform="translate(-55.733 -73.417)"/>
    <path class="cls-6" d="m70.91,184.92l105.75,0" id="Shape_17" transform="translate(-38.498 -80.453)"/>
   </g>
   <g id="_Group_2" transform="translate(126.1 76.999)">
    <g id="Group" opacity="0.13">
     <path class="cls-4" d="m159.67,90.06l-13.32,0s0.78,97.43 1.88,97.21c2.46,-0.49 10.81,-6.33 10.89,-16.08l0.4,-51.32l0.15,-29.81z" id="Shape_18" transform="translate(-147.148 -90.059)"/>
     <path class="cls-7" d="m146.35,90.06s0.78,97.43 1.88,97.21c2.46,-0.49 10.81,-6.33 10.89,-16.08l0.4,-51.32l0.14,-29.81l-13.31,0z" id="Shape_19" transform="translate(-147.148 -90.059)"/>
    </g>
   </g>
   <path class="cls-6" d="m123.63,111c0,24.84 -7.1,50.44 -28.34,50.44c-20.9,0 -28.09,-24.9 -28.09,-49.73" id="Shape_20" transform="translate(-9.571 -16.096)"/>
   <path class="cls-9" d="m66.48,110.55a4.28,4.28 0 1 0 -4.28,-4.27a4.28,4.28 0 0 0 4.28,4.27z" id="Oval" transform="translate(-8.846 -14.791)"/>
   <path class="cls-9" d="m132.48,109.55a4.28,4.28 0 1 0 -4.28,-4.28a4.28,4.28 0 0 0 4.28,4.28z" id="Oval_2" transform="translate(-18.417 -14.646)"/>
   <g id="Shape_22" transform="translate(2 150.478)">
    <path class="cls-3" d="m2.91,176l-1.71,0" id="Path_15502" transform="translate(-2 -176)"/>
   </g>
   <g id="Shape_22-2" transform="translate(168.723 150.478)">
    <path class="cls-3" d="m2.91,176l-1.71,0" id="Path_15502-2" transform="translate(-2 -176)"/>
   </g>
   <g id="Group_2" transform="translate(14.858 10.958)">
    <path d="m62.88,12.82l-37.81,0c-4.64,0 -8.83,3.73 -8.83,8.33l0,17.14c0,4.6 4.19,8.33 8.83,8.33l26.85,0l10.18,8.03l0,-8.03l0.78,0a8.43,8.43 0 0 0 5.94,-2.44a8.3,8.3 0 0 0 2.45,-5.89l0,-17.14a8.3,8.3 0 0 0 -2.45,-5.89a8.43,8.43 0 0 0 -5.94,-2.44z" fill="#fdd760" id="Shape_25" stroke="#ffc729" stroke-width="3.7px" transform="translate(-17.039 -12.817)"/>
    <g id="Group_3" opacity="0.28">
     <path d="m25.11,38.29l0,-17.14c0,-4.6 4.2,-8.33 8.83,-8.33l-8.87,0c-4.64,0 -8.83,3.73 -8.83,8.33l0,17.14c0,4.6 4.19,8.33 8.83,8.33l8.87,0c-4.63,0 -8.83,-3.74 -8.83,-8.33z" fill="#fcd66d" id="Shape_26" transform="translate(-17.039 -12.817)"/>
    </g>
    <path class="cls-13" d="m36.44,30.75a2.52,2.52 0 1 0 -2.52,-2.51a2.52,2.52 0 0 0 2.52,2.51z" id="Oval_2-2" transform="translate(-19.603 -14.689)"/>
    <path class="cls-13" d="m56.15,30.75a2.52,2.52 0 1 0 -2.53,-2.51a2.52,2.52 0 0 0 2.53,2.51z" id="Oval_2_Copy" transform="translate(-22.459 -14.689)"/>
    <g id="Shape_27" transform="translate(20.865 21.534)">
     <path d="m40.64,40.6q6.07,-5.2 12.17,0l-12.17,0z" fill="#fdd760" id="Path_15503" transform="translate(-41.443 -38.004)"/>
     <path d="m40.64,40.6q6.07,-5.2 12.17,0" fill="none" id="Path_15504" stroke="#ffc729" stroke-linecap="round" stroke-width="3.7px" transform="translate(-41.443 -38.004)"/>
    </g>
    <path d="m62.88,12.82l-37.81,0c-4.64,0 -8.83,3.73 -8.83,8.33l0,17.14c0,4.6 4.19,8.33 8.83,8.33l26.85,0l10.18,8.03l0,-8.03l0.78,0a8.43,8.43 0 0 0 5.94,-2.44a8.3,8.3 0 0 0 2.45,-5.89l0,-17.14a8.3,8.3 0 0 0 -2.45,-5.89a8.43,8.43 0 0 0 -5.94,-2.44z" fill="none" fill-rule="evenodd" id="Shape_28" stroke="#ffc729" stroke-width="3.7px" transform="translate(-17.039 -12.817)"/>
   </g>
   <g id="Group_2-2" opacity="0.21" transform="translate(13.539 9.222)">
    <path d="m22.46,32.03l0,-18.86c0,-5.06 4.62,-9.17 9.71,-9.17l-9.76,0c-5.1,0 -9.71,4.11 -9.71,9.17l0,18.86c0,5.07 4.61,9.17 9.71,9.17l9.77,0c-5.1,0 -9.72,-4.11 -9.72,-9.17z" fill="#fff" id="Shape_23" transform="translate(-13.496 -4)"/>
   </g>
  </g>
 </g>
</svg>