<svg xmlns="http://www.w3.org/2000/svg" width="170.833" height="176.473" viewBox="0 0 170.833 176.473">
    <defs>
        <style>
            .cls-1{fill:#f9f9fc}.cls-2{fill:#8e99a4}.cls-3,.cls-6,.cls-7{fill:none}.cls-3{stroke:#c6cbdb}.cls-3,.cls-6,.cls-7,.cls-9{stroke-linecap:round;stroke-linejoin:round;stroke-width:2.4px}.cls-4,.cls-9{fill:#e8eaf1}.cls-6,.cls-7,.cls-9{stroke:#c5d0d9}.cls-13,.cls-7{fill-rule:evenodd}.cls-13{fill:#ffc729}.cls-20{isolation:isolate;mix-blend-mode:soft-light}
        </style>
    </defs>
    <g id="empty_cart" transform="translate(-.8)">
        <path id="Shape" d="M74.928 17.344v-.294a17.376 17.376 0 0 1 34.253-3.8 11.482 11.482 0 0 1 11.259.119 11.121 11.121 0 0 1 5.592 9.622 6.724 6.724 0 0 1-.027.747 11.991 11.991 0 0 1 7.766 13.387 12.154 12.154 0 0 1-12.007 9.9H78.242a15 15 0 0 1-3.313-29.68z" class="cls-1" transform="translate(-8.846)"/>
        <path id="Rectangle-path_3" d="M37 154.985a.985.985 0 0 1 .985-.985h39.924a.985.985 0 0 1 .985.985v6.58a.985.985 0 0 1-.985.985H37.985a.985.985 0 0 1-.985-.985z" class="cls-1" transform="translate(-5.075 -22.332)"/>
        <g id="Shape_6" transform="translate(7.985 150.478)">
            <path id="Path_15498" d="M9 176h25.22" class="cls-3" transform="translate(-9 -176)"/>
        </g>
        <g id="Shape_6-2" transform="translate(139.653 150.478)">
            <path id="Path_15498-2" d="M9 176h25.22" class="cls-3" transform="translate(-9 -176)"/>
        </g>
        <g id="_Group_" transform="translate(33.205 62.734)">
            <path id="Shape_7" d="M162.189 90.021a.094.094 0 0 1 0 .119z" class="cls-4" transform="translate(-56.435 -75.788)"/>
            <path id="Shape_8" d="M144.285 122.193V173.3a19.736 19.736 0 0 1-19.774 19.693H58.855a19.737 19.737 0 0 1-19.769-19.56l-.367-51.239z" class="cls-4" transform="translate(-38.53 -80.453)"/>
            <path id="Shape_9" d="M144.252 90.165v27.383H38.686L38.5 90.531l105.649-.343a.1.1 0 0 0 .103-.023z" class="cls-4" transform="translate(-38.498 -75.809)"/>
            <path id="Shape_10" fill="#e2e5ed" d="M144.26 87.607v.119a.1.1 0 0 1-.074.027L38.537 88.1l3.018-1.43 11.375-5.4-11.674-7.3a.137.137 0 0 1 .073-.251l98.791-.343a.105.105 0 0 1 .069.187l-.069.055-9.6 7.621 9.6 4.432 4.1 1.892a.061.061 0 0 1 .04.044z" transform="translate(-38.504 -73.374)"/>
            <path id="Shape_11" d="M155.723 73.673v12.058l-9.6-4.432z" class="cls-4" transform="translate(-54.106 -73.417)"/>
            <path id="Shape_12" d="M53.392 81.358L42.017 86.75l-.3-12.67z" class="cls-4" transform="translate(-38.965 -73.476)"/>
            <path id="Shape_13" d="M41.719 74.079l.3 12.67" class="cls-6" transform="translate(-38.965 -73.476)"/>
            <path id="Shape_14" d="M38.5 90.477l.188 27.018.367 51.239a19.737 19.737 0 0 0 19.769 19.56h65.656a19.735 19.735 0 0 0 19.777-19.694V89.791" class="cls-6" transform="translate(-38.498 -75.755)"/>
            <path id="Shape_15" d="M41.257 73.968a.137.137 0 0 1 .073-.251l98.791-.343a.105.105 0 0 1 .069.187l-.069.055-9.6 7.621 9.6 4.432 4.1 1.892a.058.058 0 0 1 .032.027.087.087 0 0 1-.074.146L38.537 88.1l3.018-1.43 11.375-5.4z" class="cls-7" transform="translate(-38.504 -73.374)"/>
            <path id="Shape_16" d="M157.352 73.673v12.058" class="cls-6" transform="translate(-55.733 -73.417)"/>
            <path id="Shape_17" d="M38.5 122.193h105.752" class="cls-6" transform="translate(-38.498 -80.453)"/>
        </g>
        <g id="_Group_2" transform="translate(126.1 76.999)">
            <g id="Group" opacity="0.13">
                <path id="Shape_18" d="M160.465 90.059h-13.317s.779 97.428 1.887 97.208c2.458-.486 10.807-6.329 10.883-16.081l.4-51.315z" class="cls-4" transform="translate(-147.148 -90.059)"/>
                <path id="Shape_19" d="M147.148 90.059s.779 97.428 1.887 97.208c2.458-.486 10.807-6.329 10.883-16.081l.4-51.315.142-29.813z" class="cls-7" transform="translate(-147.148 -90.059)"/>
            </g>
        </g>
        <path id="Shape_20" d="M124.429 111c0 24.836-7.1 50.444-28.34 50.444-20.9 0-28.089-24.9-28.089-49.739" class="cls-6" transform="translate(-9.571 -16.096)"/>
        <path id="Oval" d="M67.275 110.55A4.275 4.275 0 1 0 63 106.275a4.275 4.275 0 0 0 4.275 4.275z" class="cls-9" transform="translate(-8.846 -14.791)"/>
        <path id="Oval_2" d="M133.275 109.55a4.275 4.275 0 1 0-4.275-4.275 4.275 4.275 0 0 0 4.275 4.275z" class="cls-9" transform="translate(-18.417 -14.646)"/>
        <g id="Shape_22" transform="translate(2 150.478)">
            <path id="Path_15502" d="M3.71 176H2" class="cls-3" transform="translate(-2 -176)"/>
        </g>
        <g id="Shape_22-2" transform="translate(168.723 150.478)">
            <path id="Path_15502-2" d="M3.71 176H2" class="cls-3" transform="translate(-2 -176)"/>
        </g>
        <g id="Group_2" transform="translate(14.858 10.958)">
            <path id="Shape_25" fill="#fdd760" stroke="#ffc729" stroke-width="3.696px" d="M63.683 12.817H25.867c-4.633 0-8.826 3.731-8.826 8.33v17.139c0 4.6 4.188 8.33 8.826 8.33h26.857l10.181 8.033v-8.033h.777a8.425 8.425 0 0 0 5.935-2.44 8.3 8.3 0 0 0 2.458-5.89V21.147a8.3 8.3 0 0 0-2.458-5.89 8.425 8.425 0 0 0-5.935-2.44z" transform="translate(-17.039 -12.817)"/>
            <g id="Group_3" opacity="0.28">
                <path id="Shape_26" fill="#fcd66d" d="M25.913 38.286V21.147c0-4.6 4.192-8.33 8.826-8.33h-8.874c-4.633 0-8.826 3.731-8.826 8.33v17.139c0 4.6 4.188 8.33 8.826 8.33h8.874c-4.633 0-8.826-3.732-8.826-8.33z" transform="translate(-17.039 -12.817)"/>
            </g>
            <path id="Oval_2-2" d="M37.243 30.755a2.515 2.515 0 1 0-2.527-2.515 2.521 2.521 0 0 0 2.527 2.515z" class="cls-13" transform="translate(-19.603 -14.689)"/>
            <path id="Oval_2_Copy" d="M56.945 30.755a2.515 2.515 0 1 0-2.527-2.515 2.521 2.521 0 0 0 2.527 2.515z" class="cls-13" transform="translate(-22.459 -14.689)"/>
            <g id="Shape_27" transform="translate(20.865 21.534)">
                <path id="Path_15503" fill="#fdd760" d="M41.443 40.6q6.07-5.2 12.172 0z" transform="translate(-41.443 -38.004)"/>
                <path id="Path_15504" fill="none" stroke="#ffc729" stroke-linecap="round" stroke-width="3.696px" d="M41.443 40.6q6.07-5.2 12.172 0" transform="translate(-41.443 -38.004)"/>
            </g>
            <path id="Shape_28" fill="none" fill-rule="evenodd" stroke="#ffc729" stroke-width="3.696px" d="M63.683 12.817H25.867c-4.633 0-8.826 3.731-8.826 8.33v17.139c0 4.6 4.188 8.33 8.826 8.33h26.857l10.181 8.033v-8.033h.777a8.425 8.425 0 0 0 5.935-2.44 8.3 8.3 0 0 0 2.458-5.89V21.147a8.3 8.3 0 0 0-2.458-5.89 8.425 8.425 0 0 0-5.935-2.44z" transform="translate(-17.039 -12.817)"/>
        </g>
        <g id="Group_2-2" opacity="0.21" transform="translate(13.539 9.222)">
            <path id="Shape_23" fill="#fff" d="M23.262 32.03V13.168C23.262 8.107 27.875 4 32.974 4h-9.766C18.11 4 13.5 8.107 13.5 13.168V32.03c0 5.066 4.609 9.168 9.712 9.168h9.766c-5.103.002-9.716-4.107-9.716-9.168z" transform="translate(-13.496 -4)"/>
        </g>
        <g id="Group_10454" transform="translate(73.809 110.723)" style="isolation:isolate" opacity="0.1">
            <g id="Group_10357" class="cls-20">
                <path id="Path_15434" d="M197.651 271.174a.58.58 0 0 0-.141-.217l-3.244-3.056a1.661 1.661 0 0 0-1.139-.453l-6.7-.009a.584.584 0 0 0-.064.007h-.045a.587.587 0 0 0-.216.042h-.009a.594.594 0 0 0-.322.322v.009a.586.586 0 0 0-.042.216v7.706h-7.706a.592.592 0 0 0-.592.592v.021a.581.581 0 0 0-.034.2l.068 6.7a1.693 1.693 0 0 0 .489 1.176l3.125 3.169a2.172 2.172 0 0 0 1.558.659h13.42a2.183 2.183 0 0 0 2.18-2.18v-13.42a2.169 2.169 0 0 0-.586-1.484zm-4.2-2.411l1.819 1.714h-5.681l-1.852-1.852 5.384.007a.482.482 0 0 1 .333.13zm-12.1 10.014l-1.884-1.854h6.605l1.854 1.854zm7.407-.841l-1.853-1.853v-6.621l1.853 1.853zm-10.115 5.3l-.057-5.518 1.871 1.841v5.725l-1.666-1.69a.516.516 0 0 1-.148-.358zm18.411 2.84a1 1 0 0 1-1 1h-13.42a1 1 0 0 1-1-1v-6.116h7.708a.592.592 0 0 0 .592-.592v-7.708h6.116a1 1 0 0 1 1 1z" transform="translate(-173.237 -262.882)"/>
                <path id="Path_15435" d="M162.69 258.876v-.009a.585.585 0 0 0 .042-.216v-7.707h7.707a.589.589 0 0 0 .372-1.048l-2.873-2.827a.59.59 0 0 0-.536-.346h-8.3a.592.592 0 0 0-.592.592v8.223a.58.58 0 0 0 .011.182v.024a.573.573 0 0 0 .041.118.585.585 0 0 0 .1.145s0 .009.009.013l.012.012 3.036 3.036a.594.594 0 0 0 .194.129h.009a.576.576 0 0 0 .432 0h.009a.593.593 0 0 0 .327-.321zm-2.99-10.128l1.853 1.854v6.621l-1.853-1.854zm7.407-.841l1.884 1.854h-6.6l-1.854-1.854z" transform="translate(-158.511 -246.724)"/>
            </g>
            <g id="Group_10359" class="cls-20">
                <path id="Path_15434-2" d="M197.651 271.174a.58.58 0 0 0-.141-.217l-3.244-3.056a1.661 1.661 0 0 0-1.139-.453l-6.7-.009a.584.584 0 0 0-.064.007h-.045a.587.587 0 0 0-.216.042h-.009a.594.594 0 0 0-.322.322v.009a.586.586 0 0 0-.042.216v7.706h-7.706a.592.592 0 0 0-.592.592v.021a.581.581 0 0 0-.034.2l.068 6.7a1.693 1.693 0 0 0 .489 1.176l3.125 3.169a2.172 2.172 0 0 0 1.558.659h13.42a2.183 2.183 0 0 0 2.18-2.18v-13.42a2.169 2.169 0 0 0-.586-1.484zm-4.2-2.411l1.819 1.714h-5.681l-1.852-1.852 5.384.007a.482.482 0 0 1 .333.13zm-12.1 10.014l-1.884-1.854h6.605l1.854 1.854zm7.407-.841l-1.853-1.853v-6.621l1.853 1.853zm-10.115 5.3l-.057-5.518 1.871 1.841v5.725l-1.666-1.69a.516.516 0 0 1-.148-.358zm18.411 2.84a1 1 0 0 1-1 1h-13.42a1 1 0 0 1-1-1v-6.116h7.708a.592.592 0 0 0 .592-.592v-7.708h6.116a1 1 0 0 1 1 1z" transform="translate(-173.237 -262.882)"/>
                <path id="Path_15435-2" d="M162.69 258.876v-.009a.585.585 0 0 0 .042-.216v-7.707h7.707a.589.589 0 0 0 .372-1.048l-2.873-2.827a.59.59 0 0 0-.536-.346h-8.3a.592.592 0 0 0-.592.592v8.223a.58.58 0 0 0 .011.182v.024a.573.573 0 0 0 .041.118.585.585 0 0 0 .1.145s0 .009.009.013l.012.012 3.036 3.036a.594.594 0 0 0 .194.129h.009a.576.576 0 0 0 .432 0h.009a.593.593 0 0 0 .327-.321zm-2.99-10.128l1.853 1.854v6.621l-1.853-1.854zm7.407-.841l1.884 1.854h-6.6l-1.854-1.854z" transform="translate(-158.511 -246.724)"/>
            </g>
            <g id="Group_10360" class="cls-20">
                <path id="Path_15434-3" d="M197.651 271.174a.58.58 0 0 0-.141-.217l-3.244-3.056a1.661 1.661 0 0 0-1.139-.453l-6.7-.009a.584.584 0 0 0-.064.007h-.045a.587.587 0 0 0-.216.042h-.009a.594.594 0 0 0-.322.322v.009a.586.586 0 0 0-.042.216v7.706h-7.706a.592.592 0 0 0-.592.592v.021a.581.581 0 0 0-.034.2l.068 6.7a1.693 1.693 0 0 0 .489 1.176l3.125 3.169a2.172 2.172 0 0 0 1.558.659h13.42a2.183 2.183 0 0 0 2.18-2.18v-13.42a2.169 2.169 0 0 0-.586-1.484zm-4.2-2.411l1.819 1.714h-5.681l-1.852-1.852 5.384.007a.482.482 0 0 1 .333.13zm-12.1 10.014l-1.884-1.854h6.605l1.854 1.854zm7.407-.841l-1.853-1.853v-6.621l1.853 1.853zm-10.115 5.3l-.057-5.518 1.871 1.841v5.725l-1.666-1.69a.516.516 0 0 1-.148-.358zm18.411 2.84a1 1 0 0 1-1 1h-13.42a1 1 0 0 1-1-1v-6.116h7.708a.592.592 0 0 0 .592-.592v-7.708h6.116a1 1 0 0 1 1 1z" transform="translate(-173.237 -262.882)"/>
                <path id="Path_15435-3" d="M162.69 258.876v-.009a.585.585 0 0 0 .042-.216v-7.707h7.707a.589.589 0 0 0 .372-1.048l-2.873-2.827a.59.59 0 0 0-.536-.346h-8.3a.592.592 0 0 0-.592.592v8.223a.58.58 0 0 0 .011.182v.024a.573.573 0 0 0 .041.118.585.585 0 0 0 .1.145s0 .009.009.013l.012.012 3.036 3.036a.594.594 0 0 0 .194.129h.009a.576.576 0 0 0 .432 0h.009a.593.593 0 0 0 .327-.321zm-2.99-10.128l1.853 1.854v6.621l-1.853-1.854zm7.407-.841l1.884 1.854h-6.6l-1.854-1.854z" transform="translate(-158.511 -246.724)"/>
            </g>
        </g>
    </g>
</svg>
